<svg xmlns="http://www.w3.org/2000/svg" xmlns:xlink="http://www.w3.org/1999/xlink" xmlns:lucid="lucid" width="780" height="420"><g transform="translate(0 0)" lucid:page-tab-id="ebRNZSo6oBJU"><path d="M20 200h220v120H20z" stroke="#000" stroke-width="2" fill="#fff"/><use xlink:href="#a" transform="matrix(1,0,0,1,25,205) translate(25.19999999999999 38.4625)"/><use xlink:href="#b" transform="matrix(1,0,0,1,25,205) translate(20.19999999999999 60.0625)"/><use xlink:href="#c" transform="matrix(1,0,0,1,25,205) translate(31.19999999999999 60.0625)"/><use xlink:href="#d" transform="matrix(1,0,0,1,25,205) translate(105.14999999999999 60.0625)"/><use xlink:href="#e" transform="matrix(1,0,0,1,25,205) translate(8.274999999999991 81.66250000000001)"/><use xlink:href="#f" transform="matrix(1,0,0,1,25,205) translate(145.075 81.66250000000001)"/><use xlink:href="#g" transform="matrix(1,0,0,1,25,205) translate(196.72500000000002 81.66250000000001)"/><path d="M560 360h200v40H560z" stroke="#000" stroke-width="2" fill="#fff"/><use xlink:href="#h" transform="matrix(1,0,0,1,565,365) translate(26.099999999999994 18.15)"/><path d="M560 300h200v40H560z" stroke="#000" stroke-width="2" fill="#c92d39"/><use xlink:href="#i" transform="matrix(1,0,0,1,565,305) translate(26.575000000000003 18.15)"/><path d="M560 240h200v40H560z" stroke="#000" stroke-width="2" fill="#fff"/><use xlink:href="#j" transform="matrix(1,0,0,1,565,245) translate(46.074999999999996 18.15)"/><path d="M560 180h200v40H560z" stroke="#000" stroke-width="2" fill="#c92d39"/><use xlink:href="#k" transform="matrix(1,0,0,1,565,185) translate(38.625 18.15)"/><path d="M560 120h200v40H560z" stroke="#000" stroke-width="2" fill="#fff"/><use xlink:href="#l" transform="matrix(1,0,0,1,565,125) translate(36.05 18.15)"/><path d="M320 200c26.56 19.92 43.36 19.92 53.28 19.92 16 0 37.28-19.92 53.28-19.92 10.08 0 26.72 0 53.44 19.92V320c-26.72-20.04-43.36-20.04-53.44-20.04-16 0-37.28 20.04-53.28 20.04-9.92 0-26.72 0-53.28-20.04z" stroke="#c92d39" stroke-width="2" fill="#fff"/><use xlink:href="#m" transform="matrix(1,0,0,1,325,205) translate(15.774999999999999 59.0875)"/><use xlink:href="#n" transform="matrix(1,0,0,1,325,205) translate(89.275 59.0875)"/><path d="M242 260h58.5" stroke="#c92d39" stroke-width="2" fill="none"/><path d="M242.03 261H241v-2h1.03z" fill="#c92d39"/><path d="M315.76 260l-14.26 4.64v-9.28z" stroke="#c92d39" stroke-width="2" fill="#c92d39"/><path d="M482 260h38V140h20.5" stroke="#000" stroke-width="2" fill="none"/><path d="M482.03 261H481v-2h1.03z"/><path d="M555.76 140l-14.26 4.64v-9.28z" stroke="#000" stroke-width="2"/><path d="M482 260h38v120h20.5" stroke="#000" stroke-width="2" fill="none"/><path d="M482.03 261H481v-2h1.03z"/><path d="M555.76 380l-14.26 4.64v-9.28z" stroke="#000" stroke-width="2"/><path d="M482 260h38v60h20.5" stroke="#c92d39" stroke-width="2" fill="none"/><path d="M482.03 261H481v-2h1.03z" fill="#c92d39"/><path d="M555.76 320l-14.26 4.64v-9.28z" stroke="#c92d39" stroke-width="2" fill="#c92d39"/><path d="M482 260h58.5" stroke="#000" stroke-width="2" fill="none"/><path d="M482.03 261H481v-2h1.03z"/><path d="M555.76 260l-14.26 4.64v-9.28z" stroke="#000" stroke-width="2"/><path d="M482 260h38v-60h20.5" stroke="#c92d39" stroke-width="2" fill="none"/><path d="M482.03 261H481v-2h1.03z" fill="#c92d39"/><path d="M555.76 200l-14.26 4.64v-9.28z" stroke="#c92d39" stroke-width="2" fill="#c92d39"/><path d="M560 20h200v40H560z" stroke="#000" stroke-opacity="0" stroke-width="2" fill="#fff" fill-opacity="0"/><use xlink:href="#o" transform="matrix(1,0,0,1,565,25) translate(28.59259259259258 21.430555555555557)"/><use xlink:href="#p" transform="matrix(1,0,0,1,565,25) translate(120.73456790123458 21.430555555555557)"/><path d="M20 100h220v40H20z" stroke="#000" stroke-opacity="0" stroke-width="2" fill="#fff" fill-opacity="0"/><g><use xlink:href="#q" transform="matrix(1,0,0,1,25,105) translate(18.077160493827137 21.430555555555557)"/><use xlink:href="#p" transform="matrix(1,0,0,1,25,105) translate(152.25 21.430555555555557)"/></g><path d="M560 60h200v60H560z" stroke="#000" stroke-opacity="0" stroke-width="2" fill="#fff" fill-opacity="0"/><g><use xlink:href="#r" transform="matrix(1,0,0,1,565,65) translate(35.625 17.525)"/><use xlink:href="#s" transform="matrix(1,0,0,1,565,65) translate(93.475 17.525)"/><use xlink:href="#t" transform="matrix(1,0,0,1,565,65) translate(112.425 17.525)"/><use xlink:href="#u" transform="matrix(1,0,0,1,565,65) translate(0.7999999999999972 39.125)"/><use xlink:href="#v" transform="matrix(1,0,0,1,565,65) translate(73.8 39.125)"/><use xlink:href="#w" transform="matrix(1,0,0,1,565,65) translate(101.75 39.125)"/></g><path d="M20 140h220v60H20z" stroke="#000" stroke-opacity="0" stroke-width="2" fill="#fff" fill-opacity="0"/><g><use xlink:href="#r" transform="matrix(1,0,0,1,25,145) translate(35.099999999999994 17.525)"/><use xlink:href="#s" transform="matrix(1,0,0,1,25,145) translate(92.94999999999999 17.525)"/><use xlink:href="#x" transform="matrix(1,0,0,1,25,145) translate(111.89999999999999 17.525)"/><use xlink:href="#y" transform="matrix(1,0,0,1,25,145) translate(141.89999999999998 17.525)"/><use xlink:href="#z" transform="matrix(1,0,0,1,25,145) translate(68.525 39.125)"/></g><defs><path d="M24 0v-248h52V0H24" id="A"/><path d="M135-194c87-1 58 113 63 194h-50c-7-57 23-157-34-157-59 0-34 97-39 157H25l-1-190h47c2 12-1 28 3 38 12-26 28-41 61-42" id="B"/><path d="M115-3C79 11 28 4 28-45v-112H4v-33h27l15-45h31v45h36v33H77v99c-1 23 16 31 38 25v30" id="C"/><path d="M25 0v-261h50V0H25" id="D"/><path d="M24 0v-54h51V0H24" id="E"/><path d="M175 0L67-191c6 58 2 128 3 191H24v-248h59L193-55c-6-58-2-129-3-193h46V0h-61" id="F"/><path d="M85 4C-2 5 27-109 22-190h50c7 57-23 150 33 157 60-5 35-97 40-157h50l1 190h-47c-2-12 1-28-3-38-12 25-28 42-61 42" id="G"/><path d="M220-157c-53 9-28 100-34 157h-49v-107c1-27-5-49-29-50C55-147 81-57 75 0H25l-1-190h47c2 12-1 28 3 38 10-53 101-56 108 0 13-22 24-43 59-42 82 1 51 116 57 194h-49v-107c-1-25-5-48-29-50" id="H"/><path d="M135-194c52 0 70 43 70 98 0 56-19 99-73 100-30 1-46-15-58-35L72 0H24l1-261h50v104c11-23 29-37 60-37zM114-30c31 0 40-27 40-66 0-37-7-63-39-63s-41 28-41 65c0 36 8 64 40 64" id="I"/><path d="M185-48c-13 30-37 53-82 52C43 2 14-33 14-96s30-98 90-98c62 0 83 45 84 108H66c0 31 8 55 39 56 18 0 30-7 34-22zm-45-69c5-46-57-63-70-21-2 6-4 13-4 21h74" id="J"/><path d="M135-150c-39-12-60 13-60 57V0H25l-1-190h47c2 13-1 29 3 40 6-28 27-53 61-41v41" id="K"/><path d="M76-208v77h127v40H76V0H24v-248h183v40H76" id="L"/><path d="M110-194c64 0 96 36 96 99 0 64-35 99-97 99-61 0-95-36-95-99 0-62 34-99 96-99zm-1 164c35 0 45-28 45-65 0-40-10-65-43-65-34 0-45 26-45 65 0 36 10 65 43 65" id="M"/><path d="M133-34C117-15 103 5 69 4 32 3 11-16 11-54c-1-60 55-63 116-61 1-26-3-47-28-47-18 1-26 9-28 27l-52-2c7-38 36-58 82-57s74 22 75 68l1 82c-1 14 12 18 25 15v27c-30 8-71 5-69-32zm-48 3c29 0 43-24 42-57-32 0-66-3-65 30 0 17 8 27 23 27" id="N"/><g id="a"><use transform="matrix(0.05,0,0,0.05,0,0)" xlink:href="#A"/><use transform="matrix(0.05,0,0,0.05,5,0)" xlink:href="#B"/><use transform="matrix(0.05,0,0,0.05,15.950000000000001,0)" xlink:href="#C"/><use transform="matrix(0.05,0,0,0.05,21.900000000000002,0)" xlink:href="#D"/><use transform="matrix(0.05,0,0,0.05,26.900000000000002,0)" xlink:href="#E"/><use transform="matrix(0.05,0,0,0.05,31.900000000000002,0)" xlink:href="#F"/><use transform="matrix(0.05,0,0,0.05,44.85,0)" xlink:href="#G"/><use transform="matrix(0.05,0,0,0.05,55.800000000000004,0)" xlink:href="#H"/><use transform="matrix(0.05,0,0,0.05,71.80000000000001,0)" xlink:href="#I"/><use transform="matrix(0.05,0,0,0.05,82.75000000000001,0)" xlink:href="#J"/><use transform="matrix(0.05,0,0,0.05,92.75000000000001,0)" xlink:href="#K"/><use transform="matrix(0.05,0,0,0.05,99.75000000000001,0)" xlink:href="#L"/><use transform="matrix(0.05,0,0,0.05,110.7,0)" xlink:href="#M"/><use transform="matrix(0.05,0,0,0.05,121.65000000000003,0)" xlink:href="#K"/><use transform="matrix(0.05,0,0,0.05,128.65000000000003,0)" xlink:href="#H"/><use transform="matrix(0.05,0,0,0.05,144.65000000000003,0)" xlink:href="#N"/><use transform="matrix(0.05,0,0,0.05,154.65000000000003,0)" xlink:href="#C"/></g><path fill="#c92d39" d="M39-94c74 12-11 154 75 146v23c-44 4-70-10-70-52C44-23 55-84 6-82v-22c81 4-7-162 84-157h24v23c-82-15-2 131-75 144" id="O"/><use transform="matrix(0.05,0,0,0.05,0,0)" xlink:href="#O" id="b"/><path fill="#c92d39" d="M117-194c89-4 53 116 60 194h-32v-121c0-31-8-49-39-48C34-167 62-67 57 0H25l-1-190h30c1 10-1 24 2 32 11-22 29-35 61-36" id="P"/><path fill="#c92d39" d="M100-194c62-1 85 37 85 99 1 63-27 99-86 99S16-35 15-95c0-66 28-99 85-99zM99-20c44 1 53-31 53-75 0-43-8-75-51-75s-53 32-53 75 10 74 51 75" id="Q"/><path fill="#c92d39" d="M59-47c-2 24 18 29 38 22v24C64 9 27 4 27-40v-127H5v-23h24l9-43h21v43h35v23H59v120" id="R"/><path fill="#c92d39" d="M141-36C126-15 110 5 73 4 37 3 15-17 15-53c-1-64 63-63 125-63 3-35-9-54-41-54-24 1-41 7-42 31l-33-3c5-37 33-52 76-52 45 0 72 20 72 64v82c-1 20 7 32 28 27v20c-31 9-61-2-59-35zM48-53c0 20 12 33 32 33 41-3 63-29 60-74-43 2-92-5-92 41" id="S"/><path fill="#c92d39" d="M24-231v-30h32v30H24zM24 0v-190h32V0H24" id="T"/><path fill="#c92d39" d="M33-154v-36h34v36H33zM33 0v-36h34V0H33" id="U"/><g id="c"><use transform="matrix(0.05,0,0,0.05,0,0)" xlink:href="#P"/><use transform="matrix(0.05,0,0,0.05,10,0)" xlink:href="#Q"/><use transform="matrix(0.05,0,0,0.05,20,0)" xlink:href="#R"/><use transform="matrix(0.05,0,0,0.05,25,0)" xlink:href="#S"/><use transform="matrix(0.05,0,0,0.05,35,0)" xlink:href="#R"/><use transform="matrix(0.05,0,0,0.05,40,0)" xlink:href="#T"/><use transform="matrix(0.05,0,0,0.05,43.95,0)" xlink:href="#Q"/><use transform="matrix(0.05,0,0,0.05,53.95,0)" xlink:href="#P"/><use transform="matrix(0.05,0,0,0.05,63.95,0)" xlink:href="#U"/></g><path fill="#c92d39" d="M109-170H84l-4-78h32zm-65 0H19l-4-78h33" id="V"/><path fill="#c92d39" d="M96-169c-40 0-48 33-48 73s9 75 48 75c24 0 41-14 43-38l32 2c-6 37-31 61-74 61-59 0-76-41-82-99-10-93 101-131 147-64 4 7 5 14 7 22l-32 3c-4-21-16-35-41-35" id="W"/><path fill="#c92d39" d="M210-169c-67 3-38 105-44 169h-31v-121c0-29-5-50-35-48C34-165 62-65 56 0H25l-1-190h30c1 10-1 24 2 32 10-44 99-50 107 0 11-21 27-35 58-36 85-2 47 119 55 194h-31v-121c0-29-5-49-35-48" id="X"/><path fill="#c92d39" d="M115-194c55 1 70 41 70 98S169 2 115 4C84 4 66-9 55-30l1 105H24l-1-265h31l2 30c10-21 28-34 59-34zm-8 174c40 0 45-34 45-75s-6-73-45-74c-42 0-51 32-51 76 0 43 10 73 51 73" id="Y"/><path fill="#c92d39" d="M68-38c1 34 0 65-14 84H32c9-13 17-26 17-46H33v-38h35" id="Z"/><g id="d"><use transform="matrix(0.05,0,0,0.05,0,0)" xlink:href="#V"/><use transform="matrix(0.05,0,0,0.05,6.3500000000000005,0)" xlink:href="#W"/><use transform="matrix(0.05,0,0,0.05,15.350000000000001,0)" xlink:href="#Q"/><use transform="matrix(0.05,0,0,0.05,25.35,0)" xlink:href="#X"/><use transform="matrix(0.05,0,0,0.05,40.300000000000004,0)" xlink:href="#Y"/><use transform="matrix(0.05,0,0,0.05,50.300000000000004,0)" xlink:href="#S"/><use transform="matrix(0.05,0,0,0.05,60.300000000000004,0)" xlink:href="#W"/><use transform="matrix(0.05,0,0,0.05,69.30000000000001,0)" xlink:href="#R"/><use transform="matrix(0.05,0,0,0.05,74.30000000000001,0)" xlink:href="#V"/><use transform="matrix(0.05,0,0,0.05,80.65,0)" xlink:href="#Z"/></g><path fill="#c92d39" d="M30-248c118-7 216 8 213 122C240-48 200 0 122 0H30v-248zM63-27c89 8 146-16 146-99s-60-101-146-95v194" id="aa"/><path fill="#c92d39" d="M135-143c-3-34-86-38-87 0 15 53 115 12 119 90S17 21 10-45l28-5c4 36 97 45 98 0-10-56-113-15-118-90-4-57 82-63 122-42 12 7 21 19 24 35" id="ab"/><path fill="#c92d39" d="M24 0v-261h32V0H24" id="ac"/><path fill="#c92d39" d="M179-190L93 31C79 59 56 82 12 73V49c39 6 53-20 64-50L1-190h34L92-34l54-156h33" id="ad"/><g id="e"><use transform="matrix(0.05,0,0,0.05,0,0)" xlink:href="#W"/><use transform="matrix(0.05,0,0,0.05,9,0)" xlink:href="#Q"/><use transform="matrix(0.05,0,0,0.05,19,0)" xlink:href="#X"/><use transform="matrix(0.05,0,0,0.05,33.95,0)" xlink:href="#Y"/><use transform="matrix(0.05,0,0,0.05,43.95,0)" xlink:href="#S"/><use transform="matrix(0.05,0,0,0.05,53.95,0)" xlink:href="#W"/><use transform="matrix(0.05,0,0,0.05,62.95,0)" xlink:href="#R"/><use transform="matrix(0.05,0,0,0.05,67.95,0)" xlink:href="#aa"/><use transform="matrix(0.05,0,0,0.05,80.9,0)" xlink:href="#T"/><use transform="matrix(0.05,0,0,0.05,84.85000000000001,0)" xlink:href="#ab"/><use transform="matrix(0.05,0,0,0.05,93.85000000000001,0)" xlink:href="#Y"/><use transform="matrix(0.05,0,0,0.05,103.85000000000001,0)" xlink:href="#ac"/><use transform="matrix(0.05,0,0,0.05,107.80000000000001,0)" xlink:href="#S"/><use transform="matrix(0.05,0,0,0.05,117.80000000000001,0)" xlink:href="#ad"/><use transform="matrix(0.05,0,0,0.05,126.80000000000001,0)" xlink:href="#U"/></g><path fill="#c92d39" d="M177-190C167-65 218 103 67 71c-23-6-38-20-44-43l32-5c15 47 100 32 89-28v-30C133-14 115 1 83 1 29 1 15-40 15-95c0-56 16-97 71-98 29-1 48 16 59 35 1-10 0-23 2-32h30zM94-22c36 0 50-32 50-73 0-42-14-75-50-75-39 0-46 34-46 75s6 73 46 73" id="ae"/><g id="f"><use transform="matrix(0.05,0,0,0.05,0,0)" xlink:href="#V"/><use transform="matrix(0.05,0,0,0.05,6.3500000000000005,0)" xlink:href="#ac"/><use transform="matrix(0.05,0,0,0.05,10.3,0)" xlink:href="#Q"/><use transform="matrix(0.05,0,0,0.05,20.3,0)" xlink:href="#P"/><use transform="matrix(0.05,0,0,0.05,30.3,0)" xlink:href="#ae"/><use transform="matrix(0.05,0,0,0.05,40.3,0)" xlink:href="#V"/></g><path fill="#c92d39" d="M76-40C78 24 84 88 6 75V52C86 64 9-79 80-94c-40-6-34-59-34-106 1-29-11-41-40-38v-23c44-4 70 10 70 52 0 47-12 108 38 105v22c-26 1-39 14-38 42" id="af"/><use transform="matrix(0.05,0,0,0.05,0,0)" xlink:href="#af" id="g"/><path d="M96-169c-40 0-48 33-48 73s9 75 48 75c24 0 41-14 43-38l32 2c-6 37-31 61-74 61-59 0-76-41-82-99-10-93 101-131 147-64 4 7 5 14 7 22l-32 3c-4-21-16-35-41-35" id="ag"/><path d="M84 4C-5 8 30-112 23-190h32v120c0 31 7 50 39 49 72-2 45-101 50-169h31l1 190h-30c-1-10 1-25-2-33-11 22-28 36-60 37" id="ah"/><path d="M114-163C36-179 61-72 57 0H25l-1-190h30c1 12-1 29 2 39 6-27 23-49 58-41v29" id="ai"/><path d="M100-194c63 0 86 42 84 106H49c0 40 14 67 53 68 26 1 43-12 49-29l28 8c-11 28-37 45-77 45C44 4 14-33 15-96c1-61 26-98 85-98zm52 81c6-60-76-77-97-28-3 7-6 17-6 28h103" id="aj"/><path d="M117-194c89-4 53 116 60 194h-32v-121c0-31-8-49-39-48C34-167 62-67 57 0H25l-1-190h30c1 10-1 24 2 32 11-22 29-35 61-36" id="ak"/><path d="M179-190L93 31C79 59 56 82 12 73V49c39 6 53-20 64-50L1-190h34L92-34l54-156h33" id="al"/><path d="M-5 72V49h209v23H-5" id="am"/><path d="M106-169C34-169 62-67 57 0H25v-261h32l-1 103c12-21 28-36 61-36 89 0 53 116 60 194h-32v-121c2-32-8-49-39-48" id="an"/><path d="M141-36C126-15 110 5 73 4 37 3 15-17 15-53c-1-64 63-63 125-63 3-35-9-54-41-54-24 1-41 7-42 31l-33-3c5-37 33-52 76-52 45 0 72 20 72 64v82c-1 20 7 32 28 27v20c-31 9-61-2-59-35zM48-53c0 20 12 33 32 33 41-3 63-29 60-74-43 2-92-5-92 41" id="ao"/><path d="M85-194c31 0 48 13 60 33l-1-100h32l1 261h-30c-2-10 0-23-3-31C134-8 116 4 85 4 32 4 16-35 15-94c0-66 23-100 70-100zm9 24c-40 0-46 34-46 75 0 40 6 74 45 74 42 0 51-32 51-76 0-42-9-74-50-73" id="ap"/><path d="M24 0v-261h32V0H24" id="aq"/><g id="h"><use transform="matrix(0.05,0,0,0.05,0,0)" xlink:href="#ag"/><use transform="matrix(0.05,0,0,0.05,9,0)" xlink:href="#ah"/><use transform="matrix(0.05,0,0,0.05,19,0)" xlink:href="#ai"/><use transform="matrix(0.05,0,0,0.05,24.95,0)" xlink:href="#ai"/><use transform="matrix(0.05,0,0,0.05,30.899999999999995,0)" xlink:href="#aj"/><use transform="matrix(0.05,0,0,0.05,40.9,0)" xlink:href="#ak"/><use transform="matrix(0.05,0,0,0.05,50.9,0)" xlink:href="#ag"/><use transform="matrix(0.05,0,0,0.05,59.900000000000006,0)" xlink:href="#al"/><use transform="matrix(0.05,0,0,0.05,68.9,0)" xlink:href="#am"/><use transform="matrix(0.05,0,0,0.05,78.9,0)" xlink:href="#an"/><use transform="matrix(0.05,0,0,0.05,88.9,0)" xlink:href="#ao"/><use transform="matrix(0.05,0,0,0.05,98.9,0)" xlink:href="#ak"/><use transform="matrix(0.05,0,0,0.05,108.9,0)" xlink:href="#ap"/><use transform="matrix(0.05,0,0,0.05,118.9,0)" xlink:href="#aq"/><use transform="matrix(0.05,0,0,0.05,122.85000000000001,0)" xlink:href="#aj"/><use transform="matrix(0.05,0,0,0.05,132.85000000000002,0)" xlink:href="#ai"/></g><path fill="#fff" d="M96-169c-40 0-48 33-48 73s9 75 48 75c24 0 41-14 43-38l32 2c-6 37-31 61-74 61-59 0-76-41-82-99-10-93 101-131 147-64 4 7 5 14 7 22l-32 3c-4-21-16-35-41-35" id="ar"/><path fill="#fff" d="M100-194c62-1 85 37 85 99 1 63-27 99-86 99S16-35 15-95c0-66 28-99 85-99zM99-20c44 1 53-31 53-75 0-43-8-75-51-75s-53 32-53 75 10 74 51 75" id="as"/><path fill="#fff" d="M210-169c-67 3-38 105-44 169h-31v-121c0-29-5-50-35-48C34-165 62-65 56 0H25l-1-190h30c1 10-1 24 2 32 10-44 99-50 107 0 11-21 27-35 58-36 85-2 47 119 55 194h-31v-121c0-29-5-49-35-48" id="at"/><path fill="#fff" d="M115-194c55 1 70 41 70 98S169 2 115 4C84 4 66-9 55-30l1 105H24l-1-265h31l2 30c10-21 28-34 59-34zm-8 174c40 0 45-34 45-75s-6-73-45-74c-42 0-51 32-51 76 0 43 10 73 51 73" id="au"/><path fill="#fff" d="M141-36C126-15 110 5 73 4 37 3 15-17 15-53c-1-64 63-63 125-63 3-35-9-54-41-54-24 1-41 7-42 31l-33-3c5-37 33-52 76-52 45 0 72 20 72 64v82c-1 20 7 32 28 27v20c-31 9-61-2-59-35zM48-53c0 20 12 33 32 33 41-3 63-29 60-74-43 2-92-5-92 41" id="av"/><path fill="#fff" d="M59-47c-2 24 18 29 38 22v24C64 9 27 4 27-40v-127H5v-23h24l9-43h21v43h35v23H59v120" id="aw"/><path fill="#fff" d="M-5 72V49h209v23H-5" id="ax"/><path fill="#fff" d="M106-169C34-169 62-67 57 0H25v-261h32l-1 103c12-21 28-36 61-36 89 0 53 116 60 194h-32v-121c2-32-8-49-39-48" id="ay"/><path fill="#fff" d="M117-194c89-4 53 116 60 194h-32v-121c0-31-8-49-39-48C34-167 62-67 57 0H25l-1-190h30c1 10-1 24 2 32 11-22 29-35 61-36" id="az"/><path fill="#fff" d="M85-194c31 0 48 13 60 33l-1-100h32l1 261h-30c-2-10 0-23-3-31C134-8 116 4 85 4 32 4 16-35 15-94c0-66 23-100 70-100zm9 24c-40 0-46 34-46 75 0 40 6 74 45 74 42 0 51-32 51-76 0-42-9-74-50-73" id="aA"/><path fill="#fff" d="M24 0v-261h32V0H24" id="aB"/><path fill="#fff" d="M100-194c63 0 86 42 84 106H49c0 40 14 67 53 68 26 1 43-12 49-29l28 8c-11 28-37 45-77 45C44 4 14-33 15-96c1-61 26-98 85-98zm52 81c6-60-76-77-97-28-3 7-6 17-6 28h103" id="aC"/><path fill="#fff" d="M114-163C36-179 61-72 57 0H25l-1-190h30c1 12-1 29 2 39 6-27 23-49 58-41v29" id="aD"/><g id="i"><use transform="matrix(0.05,0,0,0.05,0,0)" xlink:href="#ar"/><use transform="matrix(0.05,0,0,0.05,9,0)" xlink:href="#as"/><use transform="matrix(0.05,0,0,0.05,19,0)" xlink:href="#at"/><use transform="matrix(0.05,0,0,0.05,33.95,0)" xlink:href="#au"/><use transform="matrix(0.05,0,0,0.05,43.95,0)" xlink:href="#av"/><use transform="matrix(0.05,0,0,0.05,53.95,0)" xlink:href="#ar"/><use transform="matrix(0.05,0,0,0.05,62.95,0)" xlink:href="#aw"/><use transform="matrix(0.05,0,0,0.05,67.95,0)" xlink:href="#ax"/><use transform="matrix(0.05,0,0,0.05,77.95,0)" xlink:href="#ay"/><use transform="matrix(0.05,0,0,0.05,87.95,0)" xlink:href="#av"/><use transform="matrix(0.05,0,0,0.05,97.95,0)" xlink:href="#az"/><use transform="matrix(0.05,0,0,0.05,107.95,0)" xlink:href="#aA"/><use transform="matrix(0.05,0,0,0.05,117.95,0)" xlink:href="#aB"/><use transform="matrix(0.05,0,0,0.05,121.9,0)" xlink:href="#aC"/><use transform="matrix(0.05,0,0,0.05,131.9,0)" xlink:href="#aD"/></g><path d="M24-231v-30h32v30H24zM24 0v-190h32V0H24" id="aE"/><path d="M59-47c-2 24 18 29 38 22v24C64 9 27 4 27-40v-127H5v-23h24l9-43h21v43h35v23H59v120" id="aF"/><g id="j"><use transform="matrix(0.05,0,0,0.05,0,0)" xlink:href="#ah"/><use transform="matrix(0.05,0,0,0.05,10,0)" xlink:href="#ak"/><use transform="matrix(0.05,0,0,0.05,20,0)" xlink:href="#aE"/><use transform="matrix(0.05,0,0,0.05,23.95,0)" xlink:href="#aF"/><use transform="matrix(0.05,0,0,0.05,28.950000000000003,0)" xlink:href="#am"/><use transform="matrix(0.05,0,0,0.05,38.95,0)" xlink:href="#an"/><use transform="matrix(0.05,0,0,0.05,48.95,0)" xlink:href="#ao"/><use transform="matrix(0.05,0,0,0.05,58.95,0)" xlink:href="#ak"/><use transform="matrix(0.05,0,0,0.05,68.95,0)" xlink:href="#ap"/><use transform="matrix(0.05,0,0,0.05,78.95,0)" xlink:href="#aq"/><use transform="matrix(0.05,0,0,0.05,82.9,0)" xlink:href="#aj"/><use transform="matrix(0.05,0,0,0.05,92.9,0)" xlink:href="#ai"/></g><path fill="#fff" d="M84 4C-5 8 30-112 23-190h32v120c0 31 7 50 39 49 72-2 45-101 50-169h31l1 190h-30c-1-10 1-25-2-33-11 22-28 36-60 37" id="aG"/><g id="k"><use transform="matrix(0.05,0,0,0.05,0,0)" xlink:href="#au"/><use transform="matrix(0.05,0,0,0.05,10,0)" xlink:href="#aB"/><use transform="matrix(0.05,0,0,0.05,13.949999999999998,0)" xlink:href="#aG"/><use transform="matrix(0.05,0,0,0.05,23.95,0)" xlink:href="#aD"/><use transform="matrix(0.05,0,0,0.05,29.899999999999995,0)" xlink:href="#av"/><use transform="matrix(0.05,0,0,0.05,39.9,0)" xlink:href="#aB"/><use transform="matrix(0.05,0,0,0.05,43.85,0)" xlink:href="#ax"/><use transform="matrix(0.05,0,0,0.05,53.85,0)" xlink:href="#ay"/><use transform="matrix(0.05,0,0,0.05,63.85,0)" xlink:href="#av"/><use transform="matrix(0.05,0,0,0.05,73.85,0)" xlink:href="#az"/><use transform="matrix(0.05,0,0,0.05,83.85,0)" xlink:href="#aA"/><use transform="matrix(0.05,0,0,0.05,93.85,0)" xlink:href="#aB"/><use transform="matrix(0.05,0,0,0.05,97.8,0)" xlink:href="#aC"/><use transform="matrix(0.05,0,0,0.05,107.80000000000001,0)" xlink:href="#aD"/></g><path d="M135-143c-3-34-86-38-87 0 15 53 115 12 119 90S17 21 10-45l28-5c4 36 97 45 98 0-10-56-113-15-118-90-4-57 82-63 122-42 12 7 21 19 24 35" id="aH"/><path d="M177-190C167-65 218 103 67 71c-23-6-38-20-44-43l32-5c15 47 100 32 89-28v-30C133-14 115 1 83 1 29 1 15-40 15-95c0-56 16-97 71-98 29-1 48 16 59 35 1-10 0-23 2-32h30zM94-22c36 0 50-32 50-73 0-42-14-75-50-75-39 0-46 34-46 75s6 73 46 73" id="aI"/><g id="l"><use transform="matrix(0.05,0,0,0.05,0,0)" xlink:href="#ah"/><use transform="matrix(0.05,0,0,0.05,10,0)" xlink:href="#aH"/><use transform="matrix(0.05,0,0,0.05,19,0)" xlink:href="#ao"/><use transform="matrix(0.05,0,0,0.05,29,0)" xlink:href="#aI"/><use transform="matrix(0.05,0,0,0.05,39,0)" xlink:href="#aj"/><use transform="matrix(0.05,0,0,0.05,49,0)" xlink:href="#am"/><use transform="matrix(0.05,0,0,0.05,59,0)" xlink:href="#an"/><use transform="matrix(0.05,0,0,0.05,69,0)" xlink:href="#ao"/><use transform="matrix(0.05,0,0,0.05,79,0)" xlink:href="#ak"/><use transform="matrix(0.05,0,0,0.05,89,0)" xlink:href="#ap"/><use transform="matrix(0.05,0,0,0.05,99,0)" xlink:href="#aq"/><use transform="matrix(0.05,0,0,0.05,102.95,0)" xlink:href="#aj"/><use transform="matrix(0.05,0,0,0.05,112.95,0)" xlink:href="#ai"/></g><path fill="#c92d39" d="M266 0h-40l-56-210L115 0H75L2-248h35L96-30l15-64 43-154h32l59 218 59-218h35" id="aJ"/><path fill="#c92d39" d="M114-163C36-179 61-72 57 0H25l-1-190h30c1 12-1 29 2 39 6-27 23-49 58-41v29" id="aK"/><path fill="#c92d39" d="M100-194c63 0 86 42 84 106H49c0 40 14 67 53 68 26 1 43-12 49-29l28 8c-11 28-37 45-77 45C44 4 14-33 15-96c1-61 26-98 85-98zm52 81c6-60-76-77-97-28-3 7-6 17-6 28h103" id="aL"/><g id="m"><use transform="matrix(0.05,0,0,0.05,0,0)" xlink:href="#aJ"/><use transform="matrix(0.05,0,0,0.05,16.599999999999998,0)" xlink:href="#aK"/><use transform="matrix(0.05,0,0,0.05,22.549999999999997,0)" xlink:href="#S"/><use transform="matrix(0.05,0,0,0.05,32.55,0)" xlink:href="#Y"/><use transform="matrix(0.05,0,0,0.05,42.55,0)" xlink:href="#Y"/><use transform="matrix(0.05,0,0,0.05,52.54999999999999,0)" xlink:href="#aL"/><use transform="matrix(0.05,0,0,0.05,62.54999999999999,0)" xlink:href="#aK"/></g><path fill="#c92d39" d="M30 0v-248h33v221h125V0H30" id="aM"/><g id="n"><use transform="matrix(0.05,0,0,0.05,0,0)" xlink:href="#aM"/><use transform="matrix(0.05,0,0,0.05,10,0)" xlink:href="#S"/><use transform="matrix(0.05,0,0,0.05,20,0)" xlink:href="#ad"/><use transform="matrix(0.05,0,0,0.05,29,0)" xlink:href="#aL"/><use transform="matrix(0.05,0,0,0.05,39,0)" xlink:href="#aK"/></g><path d="M24 0v-248h52v208h133V0H24" id="aN"/><path d="M195-6C206 82 75 100 31 46c-4-6-6-13-8-21l49-6c3 16 16 24 34 25 40 0 42-37 40-79-11 22-30 35-61 35-53 0-70-43-70-97 0-56 18-96 73-97 30 0 46 14 59 34l2-30h47zm-90-29c32 0 41-27 41-63 0-35-9-62-40-62-32 0-39 29-40 63 0 36 9 62 39 62" id="aO"/><path d="M25-224v-37h50v37H25zM25 0v-190h50V0H25" id="aP"/><path d="M190-63c-7 42-38 67-86 67-59 0-84-38-90-98-12-110 154-137 174-36l-49 2c-2-19-15-32-35-32-30 0-35 28-38 64-6 74 65 87 74 30" id="aQ"/><g id="o"><use transform="matrix(0.06790123456790124,0,0,0.06790123456790124,0,0)" xlink:href="#aN"/><use transform="matrix(0.06790123456790124,0,0,0.06790123456790124,14.870370370370372,0)" xlink:href="#M"/><use transform="matrix(0.06790123456790124,0,0,0.06790123456790124,29.740740740740744,0)" xlink:href="#aO"/><use transform="matrix(0.06790123456790124,0,0,0.06790123456790124,44.611111111111114,0)" xlink:href="#aP"/><use transform="matrix(0.06790123456790124,0,0,0.06790123456790124,51.40123456790124,0)" xlink:href="#aQ"/><use transform="matrix(0.06790123456790124,0,0,0.06790123456790124,64.9814814814815,0)" xlink:href="#N"/><use transform="matrix(0.06790123456790124,0,0,0.06790123456790124,78.56172839506175,0)" xlink:href="#D"/></g><path d="M199 0l-22-63H83L61 0H9l90-248h61L250 0h-51zm-33-102l-36-108c-10 38-24 72-36 108h72" id="aR"/><path d="M24-248c93 1 206-16 204 79-1 75-69 88-152 82V0H24v-248zm52 121c47 0 100 7 100-41 0-47-54-39-100-39v80" id="aS"/><g id="p"><use transform="matrix(0.06790123456790124,0,0,0.06790123456790124,0,0)" xlink:href="#aR"/><use transform="matrix(0.06790123456790124,0,0,0.06790123456790124,17.58641975308642,0)" xlink:href="#aS"/><use transform="matrix(0.06790123456790124,0,0,0.06790123456790124,33.88271604938272,0)" xlink:href="#A"/></g><path d="M24 0v-248h195v40H76v63h132v40H76v65h150V0H24" id="aT"/><g id="q"><use transform="matrix(0.06790123456790124,0,0,0.06790123456790124,0,0)" xlink:href="#aT"/><use transform="matrix(0.06790123456790124,0,0,0.06790123456790124,16.296296296296298,0)" xlink:href="#K"/><use transform="matrix(0.06790123456790124,0,0,0.06790123456790124,25.802469135802472,0)" xlink:href="#aO"/><use transform="matrix(0.06790123456790124,0,0,0.06790123456790124,40.67283950617284,0)" xlink:href="#M"/><use transform="matrix(0.06790123456790124,0,0,0.06790123456790124,55.543209876543216,0)" xlink:href="#B"/><use transform="matrix(0.06790123456790124,0,0,0.06790123456790124,70.41358024691357,0)" xlink:href="#M"/><use transform="matrix(0.06790123456790124,0,0,0.06790123456790124,85.28395061728395,0)" xlink:href="#H"/><use transform="matrix(0.06790123456790124,0,0,0.06790123456790124,107.01234567901236,0)" xlink:href="#aP"/><use transform="matrix(0.06790123456790124,0,0,0.06790123456790124,113.80246913580248,0)" xlink:href="#aQ"/></g><path d="M188 0h-37l-8-164L71 0H34L18-190h31l8 164 75-164h34l8 164 74-164h31" id="aU"/><path d="M66-151c12-25 30-51 66-40l-6 26C45-176 58-65 38 0H6l36-190h30" id="aV"/><path d="M50-231l6-30h32l-6 30H50zM6 0l37-190h31L37 0H6" id="aW"/><path d="M51-54c-9 22 5 41 31 30L79-1C43 14 10-4 19-52l22-115H19l5-23h22l19-43h21l-9 43h35l-4 23H73" id="aX"/><path d="M111-194c62-3 86 47 72 106H45c-7 38 6 69 45 68 27-1 43-14 53-32l24 11C152-15 129 4 87 4 38 3 12-23 12-71c0-70 32-119 99-123zm44 81c14-66-71-72-95-28-4 8-8 17-11 28h106" id="aY"/><path d="M67-158c22-48 132-52 116 29L158 0h-32l25-140c3-38-53-32-70-12C52-117 51-52 38 0H6l36-190h30" id="aZ"/><g id="r"><use transform="matrix(0.05,0,0,0.05,0,0)" xlink:href="#aU"/><use transform="matrix(0.05,0,0,0.05,12.950000000000001,0)" xlink:href="#aV"/><use transform="matrix(0.05,0,0,0.05,18.900000000000002,0)" xlink:href="#aW"/><use transform="matrix(0.05,0,0,0.05,22.85,0)" xlink:href="#aX"/><use transform="matrix(0.05,0,0,0.05,27.85,0)" xlink:href="#aX"/><use transform="matrix(0.05,0,0,0.05,32.85,0)" xlink:href="#aY"/><use transform="matrix(0.05,0,0,0.05,42.85,0)" xlink:href="#aZ"/></g><g id="s"><use transform="matrix(0.05,0,0,0.05,0,0)" xlink:href="#aW"/><use transform="matrix(0.05,0,0,0.05,3.95,0)" xlink:href="#aZ"/></g><path d="M249-183c0 48-29 72-75 77L221 0h-36l-43-103H65L45 0H11l48-248c83 2 190-17 190 65zm-34 3c0-55-74-39-127-41l-18 92c63-1 145 13 145-51" id="ba"/><path d="M67 3c-93-2-31-127-26-193h32L48-50c-3 39 53 32 70 12 30-34 30-101 43-152h32L157 0h-30c1-10 6-24 4-33-14 20-29 37-64 36" id="bb"/><path d="M55-144c13 50 104 24 104 88C159 21 15 23 1-39l26-10c6 40 102 42 102-4-13-50-104-23-104-87 0-71 143-71 148-8l-29 4c-5-35-85-37-89 0" id="bc"/><path d="M58-38C53-5 46 26 28 46H7C19 32 27 18 32 0H17l7-38h34" id="bd"/><g id="t"><use transform="matrix(0.05,0,0,0.05,0,0)" xlink:href="#ba"/><use transform="matrix(0.05,0,0,0.05,12.950000000000001,0)" xlink:href="#bb"/><use transform="matrix(0.05,0,0,0.05,22.950000000000003,0)" xlink:href="#bc"/><use transform="matrix(0.05,0,0,0.05,31.950000000000003,0)" xlink:href="#aX"/><use transform="matrix(0.05,0,0,0.05,36.95,0)" xlink:href="#bd"/></g><path d="M124 0L87-78 21 0h-35l86-98-46-92h33l34 74 61-74h37l-83 92 50 98h-34" id="be"/><path d="M67-162c32-53 139-36 121 50C175-51 163 2 97 4 68 4 52-11 42-31 38 6 28 39 22 75H-9l50-265h29c-1 10 0 20-3 28zm89 36c0-26-10-43-35-43-54 0-67 50-69 103-1 29 14 45 42 46 53 0 62-58 62-106" id="bf"/><path d="M30-147c31-64 166-65 159 27C183-49 158 1 86 4 9 8 1-88 30-147zM88-20c53 0 68-48 68-100 0-31-11-51-44-50-52 1-68 46-68 97 0 32 13 53 44 53" id="bg"/><path d="M133-28C103 26-5 8 13-77c13-62 24-115 90-117 29-1 46 15 56 35l19-102h32L160 0h-30zM45-64c-2 27 10 43 35 43 54-1 69-50 69-103 0-29-15-46-42-46-53-1-58 58-62 106" id="bh"/><g id="u"><use transform="matrix(0.05,0,0,0.05,0,0)" xlink:href="#aY"/><use transform="matrix(0.05,0,0,0.05,10,0)" xlink:href="#be"/><use transform="matrix(0.05,0,0,0.05,19,0)" xlink:href="#bf"/><use transform="matrix(0.05,0,0,0.05,29,0)" xlink:href="#bg"/><use transform="matrix(0.05,0,0,0.05,39,0)" xlink:href="#bc"/><use transform="matrix(0.05,0,0,0.05,48,0)" xlink:href="#aY"/><use transform="matrix(0.05,0,0,0.05,58,0)" xlink:href="#bh"/></g><path d="M89 0H52L20-190h33L74-25l89-165h34" id="bi"/><path d="M165-48c-4 18 1 34 23 27l-3 20c-29 8-62 0-52-35h-2C116-14 99 4 63 4 30 4 8-16 8-49c0-68 71-67 138-67 10-26 0-56-31-54-26 1-42 9-47 31l-32-5c8-67 160-71 144 15-5 28-9 54-15 81zM42-50c3 52 80 24 89-6 7-12 7-24 11-38-47 1-103-4-100 44" id="bj"/><g id="v"><use transform="matrix(0.05,0,0,0.05,0,0)" xlink:href="#bi"/><use transform="matrix(0.05,0,0,0.05,9,0)" xlink:href="#aW"/><use transform="matrix(0.05,0,0,0.05,12.949999999999998,0)" xlink:href="#bj"/></g><path d="M87-220l-18 92h140l-5 28H64L45 0H11l48-248h178l-5 28H87" id="bk"/><path d="M14 0l48-248h34L48 0H14" id="bl"/><path d="M-20 4l123-265h28L8 4h-28" id="bm"/><path d="M247 0h-39l-15-214-24 57L95 0H56L31-248h35L82-30l101-218h33l16 218 101-218h35" id="bn"/><path d="M187 0l-14-72H61L19 0h-37l149-248h38L221 0h-34zm-19-99l-22-123L76-99h92" id="bo"/><path d="M194-120c59 52 2 134-86 124-53-6-90-18-98-63l31-7c8 30 29 43 70 43 46 0 84-17 71-62-32-43-135-20-137-98-3-89 178-90 191-16l-30 9c-8-48-127-53-127 5 0 53 81 35 115 65" id="bp"/><path d="M222 0l43-216c-8 16-17 34-26 49L143 0h-22L81-216 41 0H11l48-248h42l38 208 116-208h45L252 0h-30" id="bq"/><g id="w"><use transform="matrix(0.05,0,0,0.05,0,0)" xlink:href="#bk"/><use transform="matrix(0.05,0,0,0.05,10.950000000000001,0)" xlink:href="#bk"/><use transform="matrix(0.05,0,0,0.05,21.900000000000002,0)" xlink:href="#bl"/><use transform="matrix(0.05,0,0,0.05,26.900000000000002,0)" xlink:href="#bm"/><use transform="matrix(0.05,0,0,0.05,31.900000000000002,0)" xlink:href="#bn"/><use transform="matrix(0.05,0,0,0.05,48.5,0)" xlink:href="#bo"/><use transform="matrix(0.05,0,0,0.05,60.5,0)" xlink:href="#bp"/><use transform="matrix(0.05,0,0,0.05,72.5,0)" xlink:href="#bq"/></g><path d="M67-158c15-20 31-36 64-36 94 0 33 127 27 194h-32l25-140c3-38-53-32-70-12C52-117 51-51 37 0H6l51-261h31" id="br"/><g id="x"><use transform="matrix(0.05,0,0,0.05,0,0)" xlink:href="#aX"/><use transform="matrix(0.05,0,0,0.05,5,0)" xlink:href="#br"/><use transform="matrix(0.05,0,0,0.05,15,0)" xlink:href="#aY"/></g><g id="y"><use transform="matrix(0.05,0,0,0.05,0,0)" xlink:href="#br"/><use transform="matrix(0.05,0,0,0.05,10,0)" xlink:href="#bg"/><use transform="matrix(0.05,0,0,0.05,20,0)" xlink:href="#bc"/><use transform="matrix(0.05,0,0,0.05,29,0)" xlink:href="#aX"/></g><path d="M6 0l50-261h32L37 0H6" id="bs"/><path d="M103-194c29 0 47 14 56 36 2-11 5-23 8-32h30L160-5C157 61 82 97 21 62 9 55 4 45 1 30l28-7c7 42 83 31 92-3 4-16 9-38 13-55-13 20-29 36-62 36-40 0-60-25-60-64 0-71 23-131 91-131zm4 24c-53 0-58 54-61 104-2 27 10 44 36 44 49 0 65-50 67-102 1-29-15-46-42-46" id="bt"/><g id="z"><use transform="matrix(0.05,0,0,0.05,0,0)" xlink:href="#bs"/><use transform="matrix(0.05,0,0,0.05,3.95,0)" xlink:href="#bj"/><use transform="matrix(0.05,0,0,0.05,13.949999999999998,0)" xlink:href="#aZ"/><use transform="matrix(0.05,0,0,0.05,23.95,0)" xlink:href="#bt"/><use transform="matrix(0.05,0,0,0.05,33.95,0)" xlink:href="#bj"/><use transform="matrix(0.05,0,0,0.05,43.95,0)" xlink:href="#bb"/><use transform="matrix(0.05,0,0,0.05,53.95,0)" xlink:href="#bt"/><use transform="matrix(0.05,0,0,0.05,63.95,0)" xlink:href="#aY"/></g></defs></g></svg>