<svg xmlns="http://www.w3.org/2000/svg" xmlns:xlink="http://www.w3.org/1999/xlink" xmlns:lucid="lucid" width="760" height="540"><g transform="translate(0 0)" lucid:page-tab-id="TKsFtjKiMbqq"><path d="M20 20h160v100H20z" stroke="#000" stroke-width="2" fill="#fff"/><use xlink:href="#a" transform="matrix(1,0,0,1,25,25) translate(40.074999999999996 48.15)"/><path d="M20 200h160v80H20z" stroke="#000" stroke-width="2" fill="#fff"/><use xlink:href="#b" transform="matrix(1,0,0,1,25,205) translate(28.574999999999996 27.525)"/><use xlink:href="#c" transform="matrix(1,0,0,1,25,205) translate(69.475 27.525)"/><use xlink:href="#d" transform="matrix(1,0,0,1,25,205) translate(20.099999999999994 49.125)"/><use xlink:href="#e" transform="matrix(1,0,0,1,25,205) translate(63.05 49.125)"/><path d="M300 200h160v120H300z" stroke="#000" stroke-width="2" fill="#fff"/><use xlink:href="#f" transform="matrix(1,0,0,1,305,205) translate(9.099999999999994 38.4625)"/><use xlink:href="#g" transform="matrix(1,0,0,1,305,205) translate(23.599999999999994 60.0625)"/><use xlink:href="#h" transform="matrix(1,0,0,1,305,205) translate(88.45 60.0625)"/><use xlink:href="#e" transform="matrix(1,0,0,1,305,205) translate(41.574999999999996 81.66250000000001)"/><path d="M164 280c8.84 0 16 8.95 16 20s-7.16 20-16 20H36c-8.84 0-16-8.95-16-20s7.16-20 16-20z" stroke="#000" stroke-width="2" fill="#fff"/><path d="M164 320c-8.84 0-16-8.95-16-20s7.16-20 16-20" stroke="#000" stroke-width="2" fill="none"/><use xlink:href="#b" transform="matrix(1,0,0,1,25,285) translate(12.574999999999996 18.15)"/><use xlink:href="#i" transform="matrix(1,0,0,1,25,285) translate(53.475 18.15)"/><path d="M300 20h160v100H300z" stroke="#000" stroke-width="2" fill="#fff"/><use xlink:href="#j" transform="matrix(1,0,0,1,305,25) translate(23.549999999999997 36.9)"/><use xlink:href="#h" transform="matrix(1,0,0,1,305,25) translate(88.5 36.9)"/><use xlink:href="#e" transform="matrix(1,0,0,1,305,25) translate(41.574999999999996 58.5)"/><path d="M580 200h160v60H580z" stroke="#000" stroke-width="2" fill="#fff"/><use xlink:href="#k" transform="matrix(1,0,0,1,585,205) translate(18.77499999999999 17.525)"/><use xlink:href="#l" transform="matrix(1,0,0,1,585,205) translate(71.32499999999999 17.525)"/><use xlink:href="#m" transform="matrix(1,0,0,1,585,205) translate(20.099999999999994 39.125)"/><use xlink:href="#e" transform="matrix(1,0,0,1,585,205) translate(63.05 39.125)"/><path d="M604 484c-13.25 0-24-10.75-24-24 0-10.6 6.5-19.55 16.58-22.83C596 406 636 400 652 412c8-18 48-12 48 6 24-6 48 18 32 48 16 24 0 54-32 42-8 15.6-40 15.6-48 0-16 12-48 6-48-24z" stroke="#000" stroke-width="2" fill="#ffdf71"/><use xlink:href="#n" transform="matrix(1,0,0,1,585,405) translate(22.104999999999997 48.775)"/><use xlink:href="#o" transform="matrix(1,0,0,1,585,405) translate(74.005 48.775)"/><use xlink:href="#p" transform="matrix(1,0,0,1,585,405) translate(18.07999999999999 70.375)"/><use xlink:href="#q" transform="matrix(1,0,0,1,585,405) translate(90.03 70.375)"/><use xlink:href="#r" transform="matrix(1,0,0,1,585,405) translate(113.98 70.375)"/><path d="M580 45h40V20h80v25h40v50h-40v25h-80V95h-40z" stroke="#000" stroke-width="2" fill="#ffdf71"/><use xlink:href="#s" transform="matrix(1,0,0,1,585,25) translate(8.099999999999994 36.9)"/><use xlink:href="#t" transform="matrix(1,0,0,1,585,25) translate(39.099999999999994 36.9)"/><use xlink:href="#o" transform="matrix(1,0,0,1,585,25) translate(82 36.9)"/><use xlink:href="#p" transform="matrix(1,0,0,1,585,25) translate(14.524999999999999 58.5)"/><use xlink:href="#u" transform="matrix(1,0,0,1,585,25) translate(86.475 58.5)"/><use xlink:href="#v" transform="matrix(1,0,0,1,585,25) translate(116.475 58.5)"/><path d="M164 400c8.84 0 16 26.86 16 60s-7.16 60-16 60H36c-8.84 0-16-26.86-16-60s7.16-60 16-60z" stroke="#000" stroke-width="2" fill="#ffdf71"/><path d="M164 520c-8.84 0-16-26.86-16-60s7.16-60 16-60" stroke="#000" stroke-width="2" fill="none"/><use xlink:href="#w" transform="matrix(1,0,0,1,25,405) translate(18.099999999999994 48.775)"/><use xlink:href="#x" transform="matrix(1,0,0,1,25,405) translate(71.05 48.775)"/><use xlink:href="#p" transform="matrix(1,0,0,1,25,405) translate(8.074999999999996 70.375)"/><use xlink:href="#y" transform="matrix(1,0,0,1,25,405) translate(80.025 70.375)"/><use xlink:href="#z" transform="matrix(1,0,0,1,25,405) translate(100.975 70.375)"/><path d="M300 400h160v60H300z" stroke="#000" stroke-width="2" fill="#fff"/><use xlink:href="#w" transform="matrix(1,0,0,1,305,405) translate(29.549999999999997 17.525)"/><use xlink:href="#h" transform="matrix(1,0,0,1,305,405) translate(82.5 17.525)"/><use xlink:href="#e" transform="matrix(1,0,0,1,305,405) translate(41.574999999999996 39.125)"/><path d="M428 460c17.67 0 32 13.43 32 30s-14.33 30-32 30h-96c-17.67 0-32-13.43-32-30s14.33-30 32-30z" stroke="#000" stroke-width="2" fill="#fff"/><use xlink:href="#A" transform="matrix(1,0,0,1,305,465) translate(40.55 30.025)"/><path d="M61.92 180.5h-2v-15.75h2zm0-37.35h-2V122h2z"/><path d="M61.92 122.03h-2V121h2zM60.92 195.76L56.3 181.5h9.26z"/><path d="M60.92 199l-6-18.5h12zm-3.26-16.5l3.26 10.03 3.26-10.03z"/><use xlink:href="#B" transform="matrix(1,0,0,1,45.42310321965957,143.14873352351796) translate(0 14.4)"/><path d="M137.92 198h-2v-17.25h2zm0-38.85h-2V139.5h2z"/><path d="M137.92 199h-2v-1.03h2zM141.56 138.5h-9.27l4.62-14.26z"/><path d="M142.93 139.5H130.9l6.02-18.5zm-9.27-2h6.52l-3.26-10.03z"/><use xlink:href="#C" transform="matrix(1,0,0,1,115.94810321965957,159.14873352351805) translate(0 14.4)"/><path d="M224.5 272.28H182v-2h42.5zm56 0h-25v-2h25z"/><path d="M182.03 272.28H181v-2h1.03zM295.76 271.28l-14.26 4.64v-9.27z"/><path d="M299 271.28l-18.5 6v-12zm-16.5 3.26l10.03-3.26-10.03-3.26z"/><use xlink:href="#B" transform="matrix(1,0,0,1,224.5,260.48206685685136) translate(0 14.4)"/><path d="M219.03 233.62H199.5v-2h19.53zm78.97 0h-37.02v-2H298z"/><path d="M299 233.62h-1.03v-2H299zM198.5 237.25l-14.26-4.63 14.26-4.64z"/><path d="M199.5 238.63l-18.5-6 18.5-6.03zm-12.03-6l10.03 3.24v-6.5z"/><use xlink:href="#C" transform="matrix(1,0,0,1,219.025,221.8154001901847) translate(0 14.4)"/><path d="M423.26 198h-2v-27.2h2zm0-48.8h-2v-9.7h2z"/><path d="M423.26 199h-2v-1.03h2zM426.9 138.5h-9.28l4.64-14.26z"/><path d="M428.27 139.5h-12.03l6.02-18.5zm-9.27-2h6.52l-3.26-10.03z"/><use xlink:href="#B" transform="matrix(1,0,0,1,406.7564365529929,149.2) translate(0 14.4)"/><path d="M341.92 180.5h-2v-13.08h2zm1.34-34.68h-2V122h2z"/><path d="M343.26 122.03h-2V121h2zM340.92 195.76l-4.63-14.26h9.26z"/><path d="M340.92 199l-6-18.5h12zm-3.26-16.5l3.26 10.03 3.26-10.03z"/><use xlink:href="#C" transform="matrix(1,0,0,1,321.2814365529929,145.81540019018465) translate(0 14.4)"/><path d="M340.6 380.5h-2v-18.42h2zm0-40.02h-2V322h2z"/><path d="M340.6 322.03h-2V321h2zM339.6 395.76l-4.65-14.26h9.28z"/><path d="M339.6 399l-6.02-18.5h12.02zm-3.27-16.5l3.26 10.03 3.25-10.03z"/><use xlink:href="#B" transform="matrix(1,0,0,1,324.0897698863262,340.48206685685136) translate(0 14.4)"/><path d="M421.92 398h-2v-21.25h2zm0-42.85h-2V339.5h2z"/><path d="M421.92 399h-2v-1.03h2zM425.56 338.5h-9.27l4.62-14.26z"/><path d="M426.93 339.5H414.9l6.02-18.5zm-9.27-2h6.52l-3.26-10.03z"/><use xlink:href="#C" transform="matrix(1,0,0,1,399.9481032196596,355.14873352351805) translate(0 14.4)"/><path d="M242.42 472.7h60.6v2h-62.6v-12.2h2zm0-31.8h-2v-10.2h-43.1v-2h45.1z"/><path d="M303.4 474.7h-.4v-2h1.62zM196.33 434.33l-14.27-4.63 14.27-4.64z"/><path d="M197.33 435.7l-18.5-6 18.5-6zm-12.03-6l10.03 3.26v-6.52z"/><use xlink:href="#D" transform="matrix(1,0,0,1,222.92022542241716,440.8922714166602) translate(0 14.4)"/><path d="M200.28 501.32h-22.46v-2h22.46zm82.16 0h-30.2v-2h30.2z"/><path d="M177.85 501.32h-1.23l.4-2h.83zM297.7 500.32l-14.26 4.63v-9.27z"/><path d="M300.94 500.32l-18.5 6v-12zm-16.5 3.26l10.03-3.26-10.03-3.26z"/><use xlink:href="#E" transform="matrix(1,0,0,1,200.28143655299291,489.5168774693112) translate(0 14.4)"/><path d="M708 260c17.67 0 32 13.43 32 30s-14.33 30-32 30h-96c-17.67 0-32-13.43-32-30s14.33-30 32-30z" stroke="#000" stroke-width="2" fill="#fff"/><use xlink:href="#A" transform="matrix(1,0,0,1,585,265) translate(40.55 30.025)"/><path d="M631.26 386.8h-2v-9.92h2zm0-53.12h-2V322h2z"/><path d="M631.26 322.03h-2V321h2zM630.26 402.07l-4.64-14.27h9.27z"/><path d="M630.26 405.3l-6.02-18.5h12.03zM627 388.8l3.26 10.03 3.26-10.03z"/><g><use xlink:href="#F" transform="matrix(1,0,0,1,607.2564365529929,333.68206685685135) translate(0 14.4)"/><use xlink:href="#G" transform="matrix(1,0,0,1,607.2564365529929,333.68206685685135) translate(0 36)"/></g><path d="M696.14 405.87h-2v-13h2zm0-56.2h-2V339.5h2z"/><path d="M696.14 407.73l-.34-.34-1.66-1.32v-.23h2zM699.77 338.5h-9.27l4.64-14.26z"/><path d="M701.15 339.5h-12.02l6-18.5zm-9.27-2h6.52l-3.26-10.03z"/><g><use xlink:href="#F" transform="matrix(1,0,0,1,664.6639292272342,349.68206685685135) translate(0 14.4)"/><use xlink:href="#H" transform="matrix(1,0,0,1,664.6639292272342,349.68206685685135) translate(0 36)"/></g><path d="M496.1 242.95H462v-2h34.1zm64.4 0h-33.4v-2h33.4z"/><path d="M462.03 242.95H461v-2h1.03zM575.76 241.95l-14.26 4.63v-9.27z"/><path d="M579 241.95l-18.5 6v-12zm-16.5 3.26l10.03-3.25-10.03-3.26z"/><g><use xlink:href="#B" transform="matrix(1,0,0,1,496.0897698863262,231.14873352351805) translate(0 14.4)"/></g><path d="M499.02 212.28H479.5v-2h19.52zm78.98 0h-37.02v-2H578z"/><path d="M579 212.28h-1.03v-2H579zM478.5 215.92l-14.26-4.64 14.26-4.63z"/><path d="M479.5 217.3l-18.5-6.02 18.5-6zm-12.03-6.02l10.03 3.26v-6.52z"/><g><use xlink:href="#C" transform="matrix(1,0,0,1,499.025,200.4820668568514) translate(0 14.4)"/></g><path d="M494.76 85.62H462v-2h32.76zm65.74 0h-34.74v-2h34.74z"/><path d="M462.03 85.62H461v-2h1.03zM575.76 84.62l-14.26 4.63v-9.27z"/><path d="M579 84.62l-18.5 6V78.6zm-16.5 3.25l10.03-3.25-10.03-3.26z"/><g><use xlink:href="#B" transform="matrix(1,0,0,1,494.7564365529929,73.81540019018465) translate(0 14.4)"/></g><path d="M506.6 56.28h-27.1v-2h27.1zm71.4 0h-29.44v-2H578z"/><path d="M579 56.28h-1.03v-2H579zM478.5 59.92l-14.26-4.64 14.26-4.63z"/><path d="M479.5 61.3L461 55.27l18.5-6zm-12.03-6.02l10.03 3.26v-6.52z"/><g><use xlink:href="#C" transform="matrix(1,0,0,1,506.61476988632626,44.48206685685132) translate(0 14.4)"/></g><defs><path d="M140-251c81 0 123 46 123 126C263-46 219 4 140 4 59 4 17-45 17-125s42-126 123-126zm0 227c63 0 89-41 89-101s-29-99-89-99c-61 0-89 39-89 99S79-25 140-24" id="I"/><path d="M210-169c-67 3-38 105-44 169h-31v-121c0-29-5-50-35-48C34-165 62-65 56 0H25l-1-190h30c1 10-1 24 2 32 10-44 99-50 107 0 11-21 27-35 58-36 85-2 47 119 55 194h-31v-121c0-29-5-49-35-48" id="J"/><path d="M117-194c89-4 53 116 60 194h-32v-121c0-31-8-49-39-48C34-167 62-67 57 0H25l-1-190h30c1 10-1 24 2 32 11-22 29-35 61-36" id="K"/><path d="M33 0v-248h34V0H33" id="L"/><path d="M212-179c-10-28-35-45-73-45-59 0-87 40-87 99 0 60 29 101 89 101 43 0 62-24 78-52l27 14C228-24 195 4 139 4 59 4 22-46 18-125c-6-104 99-153 187-111 19 9 31 26 39 46" id="M"/><path d="M232-93c-1 65-40 97-104 97C67 4 28-28 28-90v-158h33c8 89-33 224 67 224 102 0 64-133 71-224h33v155" id="N"/><g id="a"><use transform="matrix(0.05,0,0,0.05,0,0)" xlink:href="#I"/><use transform="matrix(0.05,0,0,0.05,14,0)" xlink:href="#J"/><use transform="matrix(0.05,0,0,0.05,28.950000000000003,0)" xlink:href="#K"/><use transform="matrix(0.05,0,0,0.05,38.95,0)" xlink:href="#L"/><use transform="matrix(0.05,0,0,0.05,43.95,0)" xlink:href="#M"/><use transform="matrix(0.05,0,0,0.05,56.900000000000006,0)" xlink:href="#N"/></g><path d="M30 0v-248h33v221h125V0H30" id="O"/><path d="M233-177c-1 41-23 64-60 70L243 0h-38l-65-103H63V0H30v-248c88 3 205-21 203 71zM63-129c60-2 137 13 137-47 0-61-80-42-137-45v92" id="P"/><g id="b"><use transform="matrix(0.05,0,0,0.05,0,0)" xlink:href="#O"/><use transform="matrix(0.05,0,0,0.05,10,0)" xlink:href="#P"/><use transform="matrix(0.05,0,0,0.05,22.950000000000003,0)" xlink:href="#N"/></g><path d="M141-36C126-15 110 5 73 4 37 3 15-17 15-53c-1-64 63-63 125-63 3-35-9-54-41-54-24 1-41 7-42 31l-33-3c5-37 33-52 76-52 45 0 72 20 72 64v82c-1 20 7 32 28 27v20c-31 9-61-2-59-35zM48-53c0 20 12 33 32 33 41-3 63-29 60-74-43 2-92-5-92 41" id="Q"/><path d="M96-169c-40 0-48 33-48 73s9 75 48 75c24 0 41-14 43-38l32 2c-6 37-31 61-74 61-59 0-76-41-82-99-10-93 101-131 147-64 4 7 5 14 7 22l-32 3c-4-21-16-35-41-35" id="R"/><path d="M106-169C34-169 62-67 57 0H25v-261h32l-1 103c12-21 28-36 61-36 89 0 53 116 60 194h-32v-121c2-32-8-49-39-48" id="S"/><path d="M100-194c63 0 86 42 84 106H49c0 40 14 67 53 68 26 1 43-12 49-29l28 8c-11 28-37 45-77 45C44 4 14-33 15-96c1-61 26-98 85-98zm52 81c6-60-76-77-97-28-3 7-6 17-6 28h103" id="T"/><g id="c"><use transform="matrix(0.05,0,0,0.05,0,0)" xlink:href="#M"/><use transform="matrix(0.05,0,0,0.05,12.950000000000001,0)" xlink:href="#Q"/><use transform="matrix(0.05,0,0,0.05,22.950000000000003,0)" xlink:href="#R"/><use transform="matrix(0.05,0,0,0.05,31.950000000000003,0)" xlink:href="#S"/><use transform="matrix(0.05,0,0,0.05,41.95,0)" xlink:href="#T"/></g><path d="M30-248c118-7 216 8 213 122C240-48 200 0 122 0H30v-248zM63-27c89 8 146-16 146-99s-60-101-146-95v194" id="U"/><path d="M59-47c-2 24 18 29 38 22v24C64 9 27 4 27-40v-127H5v-23h24l9-43h21v43h35v23H59v120" id="V"/><g id="d"><use transform="matrix(0.05,0,0,0.05,0,0)" xlink:href="#U"/><use transform="matrix(0.05,0,0,0.05,12.950000000000001,0)" xlink:href="#Q"/><use transform="matrix(0.05,0,0,0.05,22.950000000000003,0)" xlink:href="#V"/><use transform="matrix(0.05,0,0,0.05,27.950000000000003,0)" xlink:href="#Q"/></g><path d="M30-248c87 1 191-15 191 75 0 78-77 80-158 76V0H30v-248zm33 125c57 0 124 11 124-50 0-59-68-47-124-48v98" id="W"/><path d="M114-163C36-179 61-72 57 0H25l-1-190h30c1 12-1 29 2 39 6-27 23-49 58-41v29" id="X"/><path d="M100-194c62-1 85 37 85 99 1 63-27 99-86 99S16-35 15-95c0-66 28-99 85-99zM99-20c44 1 53-31 53-75 0-43-8-75-51-75s-53 32-53 75 10 74 51 75" id="Y"/><path d="M108 0H70L1-190h34L89-25l56-165h34" id="Z"/><path d="M24-231v-30h32v30H24zM24 0v-190h32V0H24" id="aa"/><path d="M85-194c31 0 48 13 60 33l-1-100h32l1 261h-30c-2-10 0-23-3-31C134-8 116 4 85 4 32 4 16-35 15-94c0-66 23-100 70-100zm9 24c-40 0-46 34-46 75 0 40 6 74 45 74 42 0 51-32 51-76 0-42-9-74-50-73" id="ab"/><g id="e"><use transform="matrix(0.05,0,0,0.05,0,0)" xlink:href="#W"/><use transform="matrix(0.05,0,0,0.05,12,0)" xlink:href="#X"/><use transform="matrix(0.05,0,0,0.05,17.95,0)" xlink:href="#Y"/><use transform="matrix(0.05,0,0,0.05,27.950000000000003,0)" xlink:href="#Z"/><use transform="matrix(0.05,0,0,0.05,36.95,0)" xlink:href="#aa"/><use transform="matrix(0.05,0,0,0.05,40.900000000000006,0)" xlink:href="#ab"/><use transform="matrix(0.05,0,0,0.05,50.900000000000006,0)" xlink:href="#T"/><use transform="matrix(0.05,0,0,0.05,60.900000000000006,0)" xlink:href="#X"/></g><path d="M24 0v-261h32V0H24" id="ac"/><path d="M16-82v-28h88v28H16" id="ad"/><path d="M185-189c-5-48-123-54-124 2 14 75 158 14 163 119 3 78-121 87-175 55-17-10-28-26-33-46l33-7c5 56 141 63 141-1 0-78-155-14-162-118-5-82 145-84 179-34 5 7 8 16 11 25" id="ae"/><path d="M135-143c-3-34-86-38-87 0 15 53 115 12 119 90S17 21 10-45l28-5c4 36 97 45 98 0-10-56-113-15-118-90-4-57 82-63 122-42 12 7 21 19 24 35" id="af"/><g id="f"><use transform="matrix(0.05,0,0,0.05,0,0)" xlink:href="#O"/><use transform="matrix(0.05,0,0,0.05,10,0)" xlink:href="#Y"/><use transform="matrix(0.05,0,0,0.05,20,0)" xlink:href="#R"/><use transform="matrix(0.05,0,0,0.05,29,0)" xlink:href="#Q"/><use transform="matrix(0.05,0,0,0.05,39,0)" xlink:href="#ac"/><use transform="matrix(0.05,0,0,0.05,42.95,0)" xlink:href="#T"/><use transform="matrix(0.05,0,0,0.05,52.95,0)" xlink:href="#ad"/><use transform="matrix(0.05,0,0,0.05,58.900000000000006,0)" xlink:href="#ae"/><use transform="matrix(0.05,0,0,0.05,70.9,0)" xlink:href="#T"/><use transform="matrix(0.05,0,0,0.05,80.9,0)" xlink:href="#K"/><use transform="matrix(0.05,0,0,0.05,90.9,0)" xlink:href="#af"/><use transform="matrix(0.05,0,0,0.05,99.9,0)" xlink:href="#aa"/><use transform="matrix(0.05,0,0,0.05,103.85000000000001,0)" xlink:href="#V"/><use transform="matrix(0.05,0,0,0.05,108.85000000000001,0)" xlink:href="#aa"/><use transform="matrix(0.05,0,0,0.05,112.80000000000001,0)" xlink:href="#Z"/><use transform="matrix(0.05,0,0,0.05,121.80000000000001,0)" xlink:href="#T"/></g><path d="M63-220v92h138v28H63V0H30v-248h175v28H63" id="ag"/><path d="M143 0L79-87 56-68V0H24v-261h32v163l83-92h37l-77 82L181 0h-38" id="ah"/><path d="M177-190C167-65 218 103 67 71c-23-6-38-20-44-43l32-5c15 47 100 32 89-28v-30C133-14 115 1 83 1 29 1 15-40 15-95c0-56 16-97 71-98 29-1 48 16 59 35 1-10 0-23 2-32h30zM94-22c36 0 50-32 50-73 0-42-14-75-50-75-39 0-46 34-46 75s6 73 46 73" id="ai"/><g id="g"><use transform="matrix(0.05,0,0,0.05,0,0)" xlink:href="#ag"/><use transform="matrix(0.05,0,0,0.05,10.950000000000001,0)" xlink:href="#Y"/><use transform="matrix(0.05,0,0,0.05,20.950000000000003,0)" xlink:href="#X"/><use transform="matrix(0.05,0,0,0.05,26.900000000000002,0)" xlink:href="#ah"/><use transform="matrix(0.05,0,0,0.05,35.900000000000006,0)" xlink:href="#aa"/><use transform="matrix(0.05,0,0,0.05,39.85000000000001,0)" xlink:href="#K"/><use transform="matrix(0.05,0,0,0.05,49.85000000000001,0)" xlink:href="#ai"/></g><g id="h"><use transform="matrix(0.05,0,0,0.05,0,0)" xlink:href="#U"/><use transform="matrix(0.05,0,0,0.05,12.950000000000001,0)" xlink:href="#Q"/><use transform="matrix(0.05,0,0,0.05,22.950000000000003,0)" xlink:href="#V"/><use transform="matrix(0.05,0,0,0.05,27.950000000000003,0)" xlink:href="#Q"/></g><g id="i"><use transform="matrix(0.05,0,0,0.05,0,0)" xlink:href="#M"/><use transform="matrix(0.05,0,0,0.05,12.950000000000001,0)" xlink:href="#Q"/><use transform="matrix(0.05,0,0,0.05,22.950000000000003,0)" xlink:href="#R"/><use transform="matrix(0.05,0,0,0.05,31.950000000000003,0)" xlink:href="#S"/><use transform="matrix(0.05,0,0,0.05,41.95,0)" xlink:href="#T"/></g><path d="M179-190L93 31C79 59 56 82 12 73V49c39 6 53-20 64-50L1-190h34L92-34l54-156h33" id="aj"/><g id="j"><use transform="matrix(0.05,0,0,0.05,0,0)" xlink:href="#ae"/><use transform="matrix(0.05,0,0,0.05,12,0)" xlink:href="#aj"/><use transform="matrix(0.05,0,0,0.05,21,0)" xlink:href="#af"/><use transform="matrix(0.05,0,0,0.05,30,0)" xlink:href="#V"/><use transform="matrix(0.05,0,0,0.05,35,0)" xlink:href="#T"/><use transform="matrix(0.05,0,0,0.05,45,0)" xlink:href="#J"/></g><path d="M30 0v-248h187v28H63v79h144v27H63v87h162V0H30" id="ak"/><path d="M127-220V0H93v-220H8v-28h204v28h-85" id="al"/><g id="k"><use transform="matrix(0.05,0,0,0.05,0,0)" xlink:href="#P"/><use transform="matrix(0.05,0,0,0.05,12.950000000000001,0)" xlink:href="#ak"/><use transform="matrix(0.05,0,0,0.05,24.950000000000003,0)" xlink:href="#ae"/><use transform="matrix(0.05,0,0,0.05,36.95,0)" xlink:href="#al"/></g><g id="l"><use transform="matrix(0.05,0,0,0.05,0,0)" xlink:href="#ae"/><use transform="matrix(0.05,0,0,0.05,12,0)" xlink:href="#T"/><use transform="matrix(0.05,0,0,0.05,22,0)" xlink:href="#X"/><use transform="matrix(0.05,0,0,0.05,27.950000000000003,0)" xlink:href="#Z"/><use transform="matrix(0.05,0,0,0.05,36.95,0)" xlink:href="#aa"/><use transform="matrix(0.05,0,0,0.05,40.900000000000006,0)" xlink:href="#R"/><use transform="matrix(0.05,0,0,0.05,49.900000000000006,0)" xlink:href="#T"/></g><g id="m"><use transform="matrix(0.05,0,0,0.05,0,0)" xlink:href="#U"/><use transform="matrix(0.05,0,0,0.05,12.950000000000001,0)" xlink:href="#Q"/><use transform="matrix(0.05,0,0,0.05,22.950000000000003,0)" xlink:href="#V"/><use transform="matrix(0.05,0,0,0.05,27.950000000000003,0)" xlink:href="#Q"/></g><path d="M84 4C-5 8 30-112 23-190h32v120c0 31 7 50 39 49 72-2 45-101 50-169h31l1 190h-30c-1-10 1-25-2-33-11 22-28 36-60 37" id="am"/><g id="n"><use transform="matrix(0.05,0,0,0.05,0,0)" xlink:href="#M"/><use transform="matrix(0.05,0,0,0.05,12.950000000000001,0)" xlink:href="#ac"/><use transform="matrix(0.05,0,0,0.05,16.900000000000002,0)" xlink:href="#Y"/><use transform="matrix(0.05,0,0,0.05,26.900000000000002,0)" xlink:href="#am"/><use transform="matrix(0.05,0,0,0.05,36.900000000000006,0)" xlink:href="#ab"/></g><g id="o"><use transform="matrix(0.05,0,0,0.05,0,0)" xlink:href="#ae"/><use transform="matrix(0.05,0,0,0.05,12,0)" xlink:href="#T"/><use transform="matrix(0.05,0,0,0.05,22,0)" xlink:href="#X"/><use transform="matrix(0.05,0,0,0.05,27.950000000000003,0)" xlink:href="#Z"/><use transform="matrix(0.05,0,0,0.05,36.95,0)" xlink:href="#aa"/><use transform="matrix(0.05,0,0,0.05,40.900000000000006,0)" xlink:href="#R"/><use transform="matrix(0.05,0,0,0.05,49.900000000000006,0)" xlink:href="#T"/></g><path d="M33-154v-36h34v36H33zM33 0v-36h34V0H33" id="an"/><g id="p"><use transform="matrix(0.05,0,0,0.05,0,0)" xlink:href="#O"/><use transform="matrix(0.05,0,0,0.05,10,0)" xlink:href="#Y"/><use transform="matrix(0.05,0,0,0.05,20,0)" xlink:href="#R"/><use transform="matrix(0.05,0,0,0.05,29,0)" xlink:href="#Q"/><use transform="matrix(0.05,0,0,0.05,39,0)" xlink:href="#ac"/><use transform="matrix(0.05,0,0,0.05,42.95,0)" xlink:href="#T"/><use transform="matrix(0.05,0,0,0.05,52.95,0)" xlink:href="#af"/><use transform="matrix(0.05,0,0,0.05,61.95,0)" xlink:href="#an"/></g><path d="M67-158c15-20 31-36 64-36 94 0 33 127 27 194h-32l25-140c3-38-53-32-70-12C52-117 51-51 37 0H6l51-261h31" id="ao"/><path d="M50-231l6-30h32l-6 30H50zM6 0l37-190h31L37 0H6" id="ap"/><path d="M68-38c1 34 0 65-14 84H32c9-13 17-26 17-46H33v-38h35" id="aq"/><g id="q"><use transform="matrix(0.05,0,0,0.05,0,0)" xlink:href="#ao"/><use transform="matrix(0.05,0,0,0.05,10,0)" xlink:href="#ap"/><use transform="matrix(0.05,0,0,0.05,13.949999999999998,0)" xlink:href="#aq"/></g><path d="M248-111c6-24 9-61-24-58-72 9-57 108-77 169h-31l26-142c3-37-50-30-64-10C52-115 50-51 37 0H6l36-190h30c-1 10-6 24-4 32 13-43 101-52 105 5 13-22 29-41 61-41 90 0 28 129 23 194h-31" id="ar"/><path d="M198-190L69 30C53 58 25 83-20 72c4-11-1-27 19-22 33-1 43-29 59-52L20-190h32L79-34l84-156h35" id="as"/><g id="r"><use transform="matrix(0.05,0,0,0.05,0,0)" xlink:href="#ar"/><use transform="matrix(0.05,0,0,0.05,14.950000000000001,0)" xlink:href="#as"/></g><g id="s"><use transform="matrix(0.05,0,0,0.05,0,0)" xlink:href="#I"/><use transform="matrix(0.05,0,0,0.05,14,0)" xlink:href="#ae"/></g><g id="t"><use transform="matrix(0.05,0,0,0.05,0,0)" xlink:href="#P"/><use transform="matrix(0.05,0,0,0.05,12.950000000000001,0)" xlink:href="#W"/><use transform="matrix(0.05,0,0,0.05,24.950000000000003,0)" xlink:href="#M"/></g><path d="M111-194c62-3 86 47 72 106H45c-7 38 6 69 45 68 27-1 43-14 53-32l24 11C152-15 129 4 87 4 38 3 12-23 12-71c0-70 32-119 99-123zm44 81c14-66-71-72-95-28-4 8-8 17-11 28h106" id="at"/><path d="M67-158c22-48 132-52 116 29L158 0h-32l25-140c3-38-53-32-70-12C52-117 51-52 38 0H6l36-190h30" id="au"/><g id="u"><use transform="matrix(0.05,0,0,0.05,0,0)" xlink:href="#at"/><use transform="matrix(0.05,0,0,0.05,10,0)" xlink:href="#au"/><use transform="matrix(0.05,0,0,0.05,20,0)" xlink:href="#aq"/></g><path d="M-8 0l5-24 140-142H31l5-24h145l-5 24L36-24h119l-5 24H-8" id="av"/><g id="v"><use transform="matrix(0.05,0,0,0.05,0,0)" xlink:href="#av"/><use transform="matrix(0.05,0,0,0.05,9,0)" xlink:href="#ao"/></g><path d="M153-248C145-148 188 4 80 4 36 3 13-21 6-62l32-5c4 25 16 42 43 43 27 0 39-20 39-49v-147H72v-28h81" id="aw"/><path d="M190 0L58-211 59 0H30v-248h39L202-35l-2-213h31V0h-41" id="ax"/><g id="w"><use transform="matrix(0.05,0,0,0.05,0,0)" xlink:href="#aw"/><use transform="matrix(0.05,0,0,0.05,9,0)" xlink:href="#ae"/><use transform="matrix(0.05,0,0,0.05,21,0)" xlink:href="#I"/><use transform="matrix(0.05,0,0,0.05,35,0)" xlink:href="#ax"/></g><g id="x"><use transform="matrix(0.05,0,0,0.05,0,0)" xlink:href="#ag"/><use transform="matrix(0.05,0,0,0.05,10.950000000000001,0)" xlink:href="#aa"/><use transform="matrix(0.05,0,0,0.05,14.9,0)" xlink:href="#ac"/><use transform="matrix(0.05,0,0,0.05,18.85,0)" xlink:href="#T"/></g><path d="M76-167L44 0H12l33-167H18l4-23h27c3-47 25-81 82-69l-4 24c-35-8-44 15-46 45h37l-5 23H76" id="ay"/><path d="M66-151c12-25 30-51 66-40l-6 26C45-176 58-65 38 0H6l36-190h30" id="az"/><g id="y"><use transform="matrix(0.05,0,0,0.05,0,0)" xlink:href="#ay"/><use transform="matrix(0.05,0,0,0.05,5,0)" xlink:href="#az"/><use transform="matrix(0.05,0,0,0.05,10.95,0)" xlink:href="#aq"/></g><path d="M51-54c-9 22 5 41 31 30L79-1C43 14 10-4 19-52l22-115H19l5-23h22l19-43h21l-9 43h35l-4 23H73" id="aA"/><g id="z"><use transform="matrix(0.05,0,0,0.05,0,0)" xlink:href="#ap"/><use transform="matrix(0.05,0,0,0.05,3.95,0)" xlink:href="#aA"/></g><path d="M240 0l2-218c-23 76-54 145-80 218h-23L58-218 59 0H30v-248h44l77 211c21-75 51-140 76-211h43V0h-30" id="aB"/><path d="M115-194c55 1 70 41 70 98S169 2 115 4C84 4 66-9 55-30l1 105H24l-1-265h31l2 30c10-21 28-34 59-34zm-8 174c40 0 45-34 45-75s-6-73-45-74c-42 0-51 32-51 76 0 43 10 73 51 73" id="aC"/><g id="A"><use transform="matrix(0.05,0,0,0.05,0,0)" xlink:href="#aB"/><use transform="matrix(0.05,0,0,0.05,14.950000000000001,0)" xlink:href="#Q"/><use transform="matrix(0.05,0,0,0.05,24.950000000000003,0)" xlink:href="#aC"/><use transform="matrix(0.05,0,0,0.05,34.95,0)" xlink:href="#aC"/><use transform="matrix(0.05,0,0,0.05,44.95,0)" xlink:href="#aa"/><use transform="matrix(0.05,0,0,0.05,48.900000000000006,0)" xlink:href="#K"/><use transform="matrix(0.05,0,0,0.05,58.900000000000006,0)" xlink:href="#ai"/></g><path d="M194 0L95-120 63-95V0H30v-248h33v124l119-124h40L117-140 236 0h-42" id="aD"/><g id="B"><use transform="matrix(0.05,0,0,0.05,0,0)" xlink:href="#aD"/><use transform="matrix(0.05,0,0,0.05,12,0)" xlink:href="#T"/><use transform="matrix(0.05,0,0,0.05,22,0)" xlink:href="#aj"/></g><path d="M197 0v-115H63V0H30v-248h33v105h134v-105h34V0h-34" id="aE"/><g id="C"><use transform="matrix(0.05,0,0,0.05,0,0)" xlink:href="#aE"/><use transform="matrix(0.05,0,0,0.05,12.950000000000001,0)" xlink:href="#am"/><use transform="matrix(0.05,0,0,0.05,22.950000000000003,0)" xlink:href="#K"/><use transform="matrix(0.05,0,0,0.05,32.95,0)" xlink:href="#ah"/></g><g id="D"><use transform="matrix(0.05,0,0,0.05,0,0)" xlink:href="#W"/><use transform="matrix(0.05,0,0,0.05,12,0)" xlink:href="#Q"/><use transform="matrix(0.05,0,0,0.05,22,0)" xlink:href="#V"/><use transform="matrix(0.05,0,0,0.05,27,0)" xlink:href="#S"/></g><path d="M115-194c53 0 69 39 70 98 0 66-23 100-70 100C84 3 66-7 56-30L54 0H23l1-261h32v101c10-23 28-34 59-34zm-8 174c40 0 45-34 45-75 0-40-5-75-45-74-42 0-51 32-51 76 0 43 10 73 51 73" id="aF"/><path d="M24-231v-30h32v30H24zM-9 49c24 4 33-6 33-30v-209h32V24c2 40-23 58-65 49V49" id="aG"/><g id="E"><use transform="matrix(0.05,0,0,0.05,0,0)" xlink:href="#I"/><use transform="matrix(0.05,0,0,0.05,14,0)" xlink:href="#aF"/><use transform="matrix(0.05,0,0,0.05,24,0)" xlink:href="#aG"/><use transform="matrix(0.05,0,0,0.05,27.950000000000003,0)" xlink:href="#T"/><use transform="matrix(0.05,0,0,0.05,37.95,0)" xlink:href="#R"/><use transform="matrix(0.05,0,0,0.05,46.95,0)" xlink:href="#V"/></g><path d="M160-131c35 5 61 23 61 61C221 17 115-2 30 0v-248c76 3 177-17 177 60 0 33-19 50-47 57zm-97-11c50-1 110 9 110-42 0-47-63-36-110-37v79zm0 115c55-2 124 14 124-45 0-56-70-42-124-44v89" id="aH"/><g id="F"><use transform="matrix(0.05,0,0,0.05,0,0)" xlink:href="#aH"/><use transform="matrix(0.05,0,0,0.05,12,0)" xlink:href="#Q"/><use transform="matrix(0.05,0,0,0.05,22,0)" xlink:href="#V"/><use transform="matrix(0.05,0,0,0.05,27,0)" xlink:href="#R"/><use transform="matrix(0.05,0,0,0.05,36,0)" xlink:href="#S"/></g><g id="G"><use transform="matrix(0.05,0,0,0.05,0,0)" xlink:href="#W"/><use transform="matrix(0.05,0,0,0.05,12,0)" xlink:href="#Q"/><use transform="matrix(0.05,0,0,0.05,22,0)" xlink:href="#V"/><use transform="matrix(0.05,0,0,0.05,27,0)" xlink:href="#S"/><use transform="matrix(0.05,0,0,0.05,37,0)" xlink:href="#af"/></g><g id="H"><use transform="matrix(0.05,0,0,0.05,0,0)" xlink:href="#I"/><use transform="matrix(0.05,0,0,0.05,14,0)" xlink:href="#aF"/><use transform="matrix(0.05,0,0,0.05,24,0)" xlink:href="#aG"/><use transform="matrix(0.05,0,0,0.05,27.950000000000003,0)" xlink:href="#T"/><use transform="matrix(0.05,0,0,0.05,37.95,0)" xlink:href="#R"/><use transform="matrix(0.05,0,0,0.05,46.95,0)" xlink:href="#V"/><use transform="matrix(0.05,0,0,0.05,51.95,0)" xlink:href="#af"/></g></defs></g></svg>